<?xml version="1.0" standalone="no"?>
<!DOCTYPE svg PUBLIC "-//W3C//DTD SVG 20010904//EN"
 "http://www.w3.org/TR/2001/REC-SVG-20010904/DTD/svg10.dtd">
<svg version="1.0" xmlns="http://www.w3.org/2000/svg"
 width="36.000000pt" height="40.000000pt" viewBox="0 0 36.000000 40.000000"
 preserveAspectRatio="xMidYMid meet">

<g transform="translate(0.000000,40.000000) scale(0.100000,-0.100000)"
fill="#000000" stroke="none">
<path d="M260 369 c0 -21 -4 -28 -12 -23 -8 5 -7 0 2 -11 14 -17 15 -16 18 18
2 24 8 37 18 37 10 0 14 -13 14 -49 0 -35 5 -52 18 -62 14 -11 15 -11 5 1 -7
8 -13 38 -13 67 0 50 -1 53 -25 53 -21 0 -25 -5 -25 -31z"/>
<path d="M119 293 c-13 -16 -12 -17 4 -4 9 7 17 15 17 17 0 8 -8 3 -21 -13z"/>
<path d="M220 306 c0 -2 8 -10 18 -17 15 -13 16 -12 3 4 -13 16 -21 21 -21 13z"/>
<path d="M39 283 c-13 -16 -12 -17 4 -4 16 13 21 21 13 21 -2 0 -10 -8 -17
-17z"/>
<path d="M60 245 c-15 -18 -19 -145 -5 -145 6 0 9 26 7 65 -2 42 1 71 8 80 7
8 10 15 7 15 -2 0 -10 -7 -17 -15z"/>
<path d="M290 248 c6 -7 10 -40 10 -73 0 -54 -3 -63 -22 -74 -14 -7 -16 -9 -5
-6 10 3 24 5 30 5 19 0 13 129 -7 146 -9 8 -11 9 -6 2z"/>
<path d="M121 204 c0 -11 3 -14 6 -6 3 7 2 16 -1 19 -3 4 -6 -2 -5 -13z"/>
<path d="M231 204 c0 -11 3 -14 6 -6 3 7 2 16 -1 19 -3 4 -6 -2 -5 -13z"/>
<path d="M205 160 c-11 -12 -25 -18 -34 -15 -13 5 -14 4 -3 -7 10 -10 17 -7
39 15 15 15 25 27 22 27 -3 0 -14 -9 -24 -20z"/>
<path d="M137 73 c18 -2 50 -2 70 0 21 2 7 4 -32 4 -38 0 -55 -2 -38 -4z"/>
<path d="M126 45 c5 -11 104 -14 104 -3 0 3 -24 8 -54 10 -33 2 -52 -1 -50 -7z"/>
<path d="M103 13 c42 -2 112 -2 155 0 42 1 7 3 -78 3 -85 0 -120 -2 -77 -3z"/>
</g>
</svg>
