<?xml version="1.0" standalone="no"?>
<!DOCTYPE svg PUBLIC "-//W3C//DTD SVG 20010904//EN"
 "http://www.w3.org/TR/2001/REC-SVG-20010904/DTD/svg10.dtd">
<svg version="1.0" xmlns="http://www.w3.org/2000/svg"
 width="126.000000pt" height="122.000000pt" viewBox="0 0 126.000000 122.000000"
 preserveAspectRatio="xMidYMid meet">

<g transform="translate(0.000000,122.000000) scale(0.100000,-0.100000)"
fill="#000000" stroke="none">
<path d="M577 1209 c-97 -15 -194 -99 -222 -193 -27 -89 -16 -153 39 -235 l33
-49 -178 -172 c-99 -94 -179 -176 -179 -181 0 -15 80 -98 102 -105 12 -3 27 1
39 12 19 17 19 15 19 -109 l0 -126 -47 -3 c-35 -2 -48 -7 -48 -18 0 -13 62
-15 495 -15 433 0 495 2 495 15 0 11 -14 16 -52 18 l-53 3 0 125 c0 68 4 124
9 124 5 0 14 -7 21 -15 18 -22 28 -19 76 21 73 59 74 68 15 128 l-51 52 0 112
c0 146 -3 152 -85 152 -85 0 -95 -5 -95 -46 0 -19 -3 -34 -7 -34 -4 0 -22 14
-39 31 l-33 32 34 49 c77 111 71 233 -15 331 -68 77 -167 112 -273 96z m158
-48 c96 -43 147 -120 147 -219 0 -69 -21 -125 -65 -170 -54 -57 -102 -76 -187
-76 -57 0 -85 5 -115 21 -183 97 -187 341 -6 435 66 34 162 38 226 9z m315
-537 l0 -95 -55 47 c-52 46 -55 50 -55 96 l0 48 55 0 55 0 0 -96z m-540 63
l52 -23 -188 -182 -189 -182 -40 40 -40 41 170 164 c94 90 173 164 176 164 4
1 30 -9 59 -22z m475 -142 l170 -165 -40 -40 -40 -40 -185 177 c-102 98 -186
180 -188 183 -2 6 86 48 103 48 6 1 86 -73 180 -163z m-162 -46 l167 -161 0
-144 0 -144 -119 0 -119 0 -4 65 c-3 50 -9 70 -27 89 -54 57 -135 54 -186 -5
-21 -25 -25 -41 -25 -90 l0 -59 -120 0 -120 0 0 144 0 144 167 161 c127 122
174 161 193 161 19 0 67 -40 193 -161z m-124 -314 c8 -8 17 -40 19 -75 l4 -60
-91 0 -91 0 0 51 c0 62 13 87 52 104 35 14 82 6 107 -20z"/>
<path d="M598 1094 c-80 -43 -89 -122 -18 -159 27 -14 30 -20 30 -65 0 -28 -4
-50 -9 -50 -15 0 -41 30 -41 46 0 8 -7 14 -15 14 -8 0 -15 -8 -15 -19 0 -21
36 -71 52 -71 6 0 19 -7 29 -15 15 -15 21 -13 63 15 70 48 73 110 6 148 -27
15 -30 22 -30 69 0 43 3 51 15 46 9 -3 23 -19 31 -35 11 -22 19 -27 27 -19 17
17 -7 57 -52 86 -23 14 -42 25 -43 24 -2 -1 -15 -8 -30 -15z m12 -84 c0 -49
-5 -57 -26 -42 -20 14 -25 45 -9 68 24 37 35 29 35 -26z m80 -120 c14 -27 -5
-69 -32 -70 -5 0 -8 22 -8 50 0 40 3 48 15 44 9 -4 20 -14 25 -24z"/>
<path d="M510 415 l0 -115 120 0 121 0 -3 113 -3 112 -117 3 -118 3 0 -116z
m100 50 c0 -33 -2 -35 -35 -35 -33 0 -35 2 -35 35 0 33 2 35 35 35 33 0 35 -2
35 -35z m110 0 c0 -33 -2 -35 -35 -35 -33 0 -35 2 -35 35 0 33 2 35 35 35 33
0 35 -2 35 -35z m-110 -100 c0 -33 -2 -35 -35 -35 -33 0 -35 2 -35 35 0 33 2
35 35 35 33 0 35 -2 35 -35z m110 0 c0 -33 -2 -35 -35 -35 -33 0 -35 2 -35 35
0 33 2 35 35 35 33 0 35 -2 35 -35z"/>
<path d="M660 110 c0 -5 7 -10 15 -10 8 0 15 5 15 10 0 6 -7 10 -15 10 -8 0
-15 -4 -15 -10z"/>
<path d="M250 1141 c0 -13 70 -52 81 -46 15 10 10 19 -22 38 -33 19 -59 22
-59 8z"/>
<path d="M948 1132 c-29 -17 -34 -27 -19 -37 11 -6 81 33 81 46 0 14 -33 10
-62 -9z"/>
<path d="M195 940 c-3 -6 0 -13 8 -16 24 -9 80 0 85 14 5 15 -84 17 -93 2z"/>
<path d="M972 938 c5 -15 87 -18 91 -3 1 6 -20 11 -47 13 -36 2 -47 0 -44 -10z"/>
<path d="M283 763 c-34 -17 -40 -27 -23 -38 13 -8 82 34 74 46 -7 12 -13 11
-51 -8z"/>
<path d="M15 40 c-4 -7 -3 -16 3 -22 14 -14 57 -6 57 12 0 18 -50 26 -60 10z"/>
<path d="M1185 40 c-4 -7 -3 -16 3 -22 14 -14 57 -6 57 12 0 18 -50 26 -60 10z"/>
</g>
</svg>
