<?xml version="1.0" standalone="no"?>
<!DOCTYPE svg PUBLIC "-//W3C//DTD SVG 20010904//EN"
 "http://www.w3.org/TR/2001/REC-SVG-20010904/DTD/svg10.dtd">
<svg version="1.0" xmlns="http://www.w3.org/2000/svg"
 width="124.000000pt" height="127.000000pt" viewBox="0 0 124.000000 127.000000"
 preserveAspectRatio="xMidYMid meet">

<g transform="translate(0.000000,127.000000) scale(0.100000,-0.100000)"
fill="#000000" stroke="none">
<path d="M490 1199 c-68 -39 -130 -75 -137 -81 -19 -15 -5 -29 22 -22 l24 6 3
-153 3 -154 68 -3 c89 -4 97 3 97 84 l0 64 50 0 49 0 3 -72 3 -73 75 0 75 0 3
153 3 153 26 -3 c57 -6 28 21 -84 82 -65 35 -127 69 -138 76 -18 11 -35 4
-145 -57z m308 -219 l3 -150 -51 0 -50 0 0 69 c0 79 -2 81 -85 81 -83 0 -85
-2 -85 -81 l0 -69 -50 0 -50 0 0 148 0 148 92 51 92 51 91 -48 90 -49 3 -151z"/>
<path d="M11 855 c3 -11 56 -50 126 -94 67 -42 121 -81 120 -87 -1 -6 -42 -75
-92 -153 -61 -96 -95 -140 -105 -137 -8 2 -23 7 -34 11 -14 6 -17 4 -14 -11 3
-19 161 -134 184 -134 6 0 19 12 29 26 l17 27 137 -136 c156 -155 172 -165
207 -143 14 10 33 14 48 10 18 -4 31 0 49 18 13 13 34 24 48 25 25 2 59 36 59
59 0 7 11 24 25 38 14 14 25 31 25 38 0 12 127 88 147 88 5 0 16 -11 23 -25 7
-14 19 -25 26 -25 11 0 160 96 189 122 18 16 -11 31 -34 17 -17 -11 -23 -11
-35 1 -27 29 -186 283 -181 290 3 4 57 41 122 81 64 41 122 77 127 81 8 5 7
11 -1 19 -9 9 -60 -19 -217 -117 -197 -123 -206 -130 -201 -156 l5 -28 -121 0
c-66 0 -129 -5 -140 -10 -13 -8 -32 -7 -62 0 -70 18 -69 18 -58 39 10 17 -9
32 -190 146 -225 142 -233 146 -228 120z m368 -251 c12 -11 0 -34 -80 -155
-52 -78 -97 -146 -101 -152 -7 -11 -98 42 -98 57 0 5 43 76 96 157 l97 149 36
-22 c20 -11 42 -27 50 -34z m666 -105 c104 -160 102 -147 24 -193 l-28 -17
-102 152 c-55 83 -97 155 -92 159 30 27 89 58 96 51 4 -4 50 -73 102 -152z
m-555 8 c0 -6 -20 -32 -45 -58 -25 -26 -45 -55 -45 -63 0 -9 13 -30 28 -47 21
-23 38 -32 72 -36 40 -4 52 0 109 37 52 34 66 39 76 28 111 -123 133 -162 98
-175 -11 -5 -33 13 -77 61 -34 36 -64 66 -68 66 -20 0 -3 -32 53 -98 60 -71
71 -103 37 -110 -10 -2 -43 29 -89 82 -40 48 -76 86 -80 86 -26 0 -12 -29 46
-96 66 -76 78 -109 40 -109 -13 0 -48 31 -94 83 -51 58 -77 80 -84 73 -7 -7 2
-25 29 -57 77 -92 85 -104 79 -114 -4 -6 -13 -10 -20 -8 -7 2 -76 65 -154 140
l-142 137 70 105 70 104 45 -11 c25 -6 46 -15 46 -20z m400 -52 c28 -41 45
-75 39 -75 -6 0 -67 10 -134 22 l-122 21 -62 -42 c-66 -45 -108 -54 -150 -32
-35 19 -26 52 32 108 28 29 63 56 77 62 14 5 80 10 147 10 l122 1 51 -75z m48
-115 c26 0 10 -17 -50 -49 l-62 -34 -48 53 c-26 30 -48 57 -48 61 0 3 44 -2
98 -12 53 -10 103 -18 110 -19z"/>
</g>
</svg>
