<?xml version="1.0" standalone="no"?>
<!DOCTYPE svg PUBLIC "-//W3C//DTD SVG 20010904//EN"
 "http://www.w3.org/TR/2001/REC-SVG-20010904/DTD/svg10.dtd">
<svg version="1.0" xmlns="http://www.w3.org/2000/svg"
 width="96.000000pt" height="90.000000pt" viewBox="0 0 96.000000 90.000000"
 preserveAspectRatio="xMidYMid meet">

<g transform="translate(0.000000,90.000000) scale(0.100000,-0.100000)"
fill="#000000" stroke="none">
<path d="M503 870 c-21 -36 -26 -37 -43 -5 -7 14 -21 25 -30 25 -9 0 -22 -11
-28 -25 -14 -31 -26 -32 -46 -4 -9 14 -21 19 -31 15 -13 -5 -15 -20 -13 -93
l3 -88 165 0 165 0 3 88 c2 73 0 88 -14 94 -10 4 -24 -4 -38 -22 l-22 -28 -13
31 c-18 43 -37 47 -58 12z m-49 -25 c11 -19 22 -35 25 -35 3 0 16 17 27 38
l22 37 22 -38 c26 -44 32 -45 50 -12 23 42 30 28 30 -55 l0 -80 -150 0 -150 0
0 88 0 87 20 -25 c11 -14 20 -28 20 -32 0 -20 22 -4 37 27 9 19 19 35 23 35 3
0 14 -16 24 -35z"/>
<path d="M338 600 c-80 -10 -136 -27 -160 -48 -15 -12 -18 -32 -18 -97 0 -82
0 -83 -27 -90 -39 -9 -90 -50 -108 -86 -31 -60 -17 -129 26 -129 16 0 19 -8
19 -60 0 -52 3 -62 25 -76 29 -19 62 -11 90 22 27 32 110 44 295 44 184 0 268
-13 295 -45 28 -33 61 -40 90 -21 22 14 25 24 25 76 0 52 3 60 19 60 43 0 57
69 26 129 -18 36 -69 77 -107 86 -28 7 -28 8 -28 85 0 96 -12 114 -94 135 -73
18 -277 27 -368 15z m387 -42 l40 -15 3 -86 c3 -82 2 -87 -18 -87 -18 0 -20 6
-20 58 0 32 -5 63 -12 70 -16 16 -190 16 -206 0 -7 -7 -12 -38 -12 -70 0 -51
-2 -58 -20 -58 -18 0 -20 7 -20 58 0 32 -5 63 -12 70 -16 16 -190 16 -206 0
-7 -7 -12 -38 -12 -70 0 -51 -2 -58 -20 -58 -18 0 -20 7 -20 85 0 96 2 98 92
114 81 15 395 7 443 -11z m-287 -107 c2 -19 1 -45 -3 -58 -5 -23 -8 -24 -93
-21 l-87 3 -3 44 c-5 71 -4 72 95 69 l88 -3 3 -34z m267 -21 l0 -55 -90 0 -90
0 -3 44 c-5 71 -4 72 95 69 l88 -3 0 -55z m145 -98 c48 -24 82 -77 78 -122
l-3 -35 -445 0 -445 0 -3 35 c-4 45 30 98 78 122 31 16 71 18 370 18 299 0
339 -2 370 -18z m-690 -243 l0 -60 -32 3 c-33 3 -33 4 -36 61 l-3 57 36 0 35
0 0 -61z m610 25 c0 -34 -1 -36 -27 -30 -86 19 -270 27 -381 17 -64 -6 -129
-14 -144 -17 -27 -6 -28 -4 -28 30 l0 36 290 0 290 0 0 -36z m98 -21 c-3 -57
-3 -58 -35 -61 l-33 -3 0 60 0 61 35 0 36 0 -3 -57z"/>
<path d="M190 295 c0 -8 7 -15 15 -15 8 0 15 7 15 15 0 8 -7 15 -15 15 -8 0
-15 -7 -15 -15z"/>
<path d="M86 269 c-26 -31 -35 -69 -16 -69 6 0 10 8 10 18 0 22 35 62 55 62 8
0 15 5 15 10 0 21 -39 9 -64 -21z"/>
</g>
</svg>
