<?xml version="1.0" standalone="no"?>
<!DOCTYPE svg PUBLIC "-//W3C//DTD SVG 20010904//EN"
 "http://www.w3.org/TR/2001/REC-SVG-20010904/DTD/svg10.dtd">
<svg version="1.0" xmlns="http://www.w3.org/2000/svg"
 width="80.000000pt" height="83.000000pt" viewBox="0 0 80.000000 83.000000"
 preserveAspectRatio="xMidYMid meet">

<g transform="translate(0.000000,83.000000) scale(0.100000,-0.100000)"
fill="#000000" stroke="none">
<path d="M192 619 c-106 -110 -190 -205 -187 -210 4 -5 26 -9 50 -9 l45 0 2
-192 3 -193 293 -3 292 -2 0 195 0 195 51 0 c40 0 50 3 47 15 -4 23 -370 403
-388 404 -8 0 -102 -89 -208 -200z m372 -11 c131 -138 152 -164 133 -166 -45
-8 -47 -15 -47 -208 l0 -184 -255 0 -255 0 -2 192 -3 193 -30 5 c-29 5 -27 7
125 166 85 89 160 162 167 163 6 0 81 -72 167 -161z"/>
<path d="M335 368 c-37 -29 -55 -76 -55 -145 0 -45 -5 -62 -22 -80 -14 -16
-18 -27 -12 -33 7 -7 18 -2 34 15 21 22 32 25 95 25 58 0 78 4 99 21 42 33 56
71 56 149 l0 70 -84 0 c-70 0 -88 -3 -111 -22z m163 -74 c-4 -58 -8 -70 -32
-90 -21 -19 -39 -24 -79 -24 l-51 0 43 44 c59 60 45 84 -15 25 l-44 -43 0 52
c0 43 5 58 25 77 21 22 33 25 91 25 l66 0 -4 -66z"/>
</g>
</svg>
