<?xml version="1.0" standalone="no"?>
<!DOCTYPE svg PUBLIC "-//W3C//DTD SVG 20010904//EN"
 "http://www.w3.org/TR/2001/REC-SVG-20010904/DTD/svg10.dtd">
<svg version="1.0" xmlns="http://www.w3.org/2000/svg"
 width="42.000000pt" height="34.000000pt" viewBox="0 0 42.000000 34.000000"
 preserveAspectRatio="xMidYMid meet">

<g transform="translate(0.000000,34.000000) scale(0.100000,-0.100000)"
fill="#000000" stroke="none">
<path d="M105 330 c-12 -4 -27 -16 -35 -26 -14 -18 -14 -18 5 -3 34 28 59 30
100 9 37 -19 40 -19 55 -3 14 15 13 16 -2 4 -14 -10 -21 -10 -40 2 -33 21 -60
27 -83 17z"/>
<path d="M262 331 c-8 -5 -1 -8 19 -8 23 0 39 -8 56 -27 12 -15 23 -23 23 -18
0 13 -42 49 -65 56 -11 3 -26 2 -33 -3z"/>
<path d="M362 221 c-2 -41 -3 -43 -29 -39 l-28 4 0 -81 c0 -77 -1 -80 -23 -79
-16 0 -20 -2 -12 -10 7 -7 16 -7 31 2 11 7 25 10 32 6 9 -5 9 -3 0 7 -8 7 -13
39 -13 76 0 57 2 63 20 63 25 0 33 17 27 62 -3 29 -4 28 -5 -11z"/>
<path d="M42 225 c0 -16 2 -22 5 -12 2 9 2 23 0 30 -3 6 -5 -1 -5 -18z"/>
<path d="M114 189 c-3 -6 -19 -9 -35 -7 -18 3 -29 0 -29 -7 0 -6 10 -11 23
-11 21 1 22 -3 22 -67 0 -93 13 -85 17 11 2 60 6 77 18 77 12 0 16 -16 18 -75
2 -62 0 -77 -14 -87 -10 -7 -13 -13 -6 -13 6 0 17 9 25 20 12 18 15 18 38 4
16 -10 14 -7 -6 10 l-30 26 49 0 49 0 -19 -21 c-19 -22 -19 -22 4 -8 19 12 22
22 21 69 0 30 -3 49 -6 43 -3 -8 -23 -13 -49 -13 -36 0 -44 3 -44 18 0 32 -32
53 -46 31z m136 -84 c0 -23 -4 -25 -45 -25 -41 0 -45 2 -45 25 0 23 4 25 45
25 41 0 45 -2 45 -25z"/>
<path d="M358 97 c-1 -36 0 -63 5 -60 4 2 7 10 7 16 0 7 9 18 20 25 20 12 27
37 12 46 -5 3 -8 -4 -8 -16 1 -12 -5 -23 -12 -25 -9 -4 -12 5 -10 31 1 19 -1
38 -4 41 -3 4 -8 -23 -10 -58z"/>
<path d="M25 133 c-16 -13 -17 -15 -2 -10 13 5 17 1 17 -19 0 -21 -4 -25 -17
-20 -15 5 -14 3 2 -10 19 -14 20 -14 23 11 2 14 2 34 0 44 -3 18 -5 18 -23 4z"/>
</g>
</svg>
