<?xml version="1.0" standalone="no"?>
<!DOCTYPE svg PUBLIC "-//W3C//DTD SVG 20010904//EN"
 "http://www.w3.org/TR/2001/REC-SVG-20010904/DTD/svg10.dtd">
<svg version="1.0" xmlns="http://www.w3.org/2000/svg"
 width="84.000000pt" height="79.000000pt" viewBox="0 0 84.000000 79.000000"
 preserveAspectRatio="xMidYMid meet">

<g transform="translate(0.000000,79.000000) scale(0.100000,-0.100000)"
fill="#000000" stroke="none">
<path d="M109 604 c-9 -11 -14 -62 -17 -167 -4 -134 -7 -153 -23 -165 -11 -8
-19 -25 -19 -41 0 -16 -10 -41 -22 -56 -32 -41 -28 -80 15 -123 33 -33 42 -36
102 -40 44 -3 65 -1 65 7 0 6 -4 11 -10 11 -5 0 -10 11 -10 25 0 16 -11 35
-27 49 -25 21 -28 31 -28 87 0 35 -3 69 -7 75 -8 11 35 260 46 271 12 12 114
-98 109 -116 -2 -10 3 -23 11 -30 20 -17 21 -80 1 -95 -8 -6 -24 -51 -36 -101
-11 -49 -23 -99 -25 -110 -3 -12 3 -31 14 -45 20 -25 22 -25 180 -25 143 0
162 2 181 19 22 20 29 70 11 81 -5 3 -10 28 -10 54 0 26 -7 62 -16 79 -15 31
-18 32 -77 32 -86 1 -97 11 -97 94 0 37 -4 76 -10 86 -5 10 -54 42 -107 71
-54 29 -109 61 -122 71 -29 22 -54 23 -72 2z m65 -16 c15 -24 -13 -53 -43 -43
-23 7 -28 34 -9 53 16 16 38 12 52 -10z m209 -116 c13 -12 17 -31 17 -94 l0
-78 -35 0 c-34 0 -35 1 -35 41 0 23 7 47 15 55 20 21 2 54 -29 54 -31 0 -126
85 -126 112 0 17 9 15 88 -28 48 -26 95 -54 105 -62z m-244 59 c12 -8 12 -24
-4 -113 -24 -138 -34 -160 -34 -78 -1 81 10 200 18 200 3 0 12 -4 20 -9z m201
-110 c0 -26 -17 -36 -35 -21 -18 15 -8 40 16 40 12 0 19 -7 19 -19z m98 -208
l3 -73 -91 0 c-82 0 -91 2 -86 18 2 9 10 43 16 75 l12 58 71 -3 72 -3 3 -72z
m-314 34 c15 -25 -18 -51 -45 -36 -19 10 -25 39 -12 53 12 12 45 2 57 -17z
m456 9 c0 -10 -14 -16 -42 -19 -41 -3 -41 -4 10 -5 l52 -2 0 -45 0 -45 -75 0
-75 0 0 45 c0 29 4 45 13 46 10 0 10 2 0 6 -7 2 -13 11 -13 19 0 11 16 14 65
14 50 0 65 -3 65 -14z m-460 -87 c0 -17 12 -42 30 -63 22 -24 27 -36 18 -40
-10 -5 -10 -7 0 -12 28 -13 9 -24 -42 -24 -48 0 -57 3 -80 31 -48 57 -22 136
44 136 26 0 30 -4 30 -28z m494 -72 c7 -19 7 -34 0 -45 -10 -15 -32 -17 -185
-17 l-174 0 -9 27 c-8 22 -6 32 9 48 17 19 28 20 184 18 l166 -3 9 -28z"/>
<path d="M310 248 c0 -7 -3 -23 -6 -35 -6 -22 -4 -23 55 -23 l61 0 0 35 0 35
-55 0 c-37 0 -55 -4 -55 -12z m90 -23 c0 -22 -4 -25 -40 -25 -36 0 -40 3 -40
25 0 23 4 25 40 25 36 0 40 -2 40 -25z"/>
<path d="M488 193 c7 -3 16 -2 19 1 4 3 -2 6 -13 5 -11 0 -14 -3 -6 -6z"/>
<path d="M548 193 c7 -3 16 -2 19 1 4 3 -2 6 -13 5 -11 0 -14 -3 -6 -6z"/>
<path d="M280 95 c-23 -27 19 -66 46 -44 11 9 18 8 29 -1 12 -10 18 -10 30 0
12 10 18 10 29 1 10 -9 20 -9 33 -2 11 5 25 6 33 1 8 -5 21 -5 30 0 9 5 22 5
30 0 21 -13 52 8 48 33 -3 21 -7 22 -151 23 -104 1 -150 -3 -157 -11z m50 -15
c0 -13 -7 -20 -19 -20 -22 0 -35 15 -26 30 12 19 45 11 45 -10z m60 0 c0 -13
-7 -20 -20 -20 -13 0 -20 7 -20 20 0 13 7 20 20 20 13 0 20 -7 20 -20z m65 0
c0 -8 -10 -16 -22 -18 -18 -3 -23 2 -23 18 0 16 5 21 23 18 12 -2 22 -10 22
-18z m60 0 c0 -8 -10 -16 -22 -18 -18 -3 -23 2 -23 18 0 16 5 21 23 18 12 -2
22 -10 22 -18z m63 -3 c3 -12 -3 -17 -22 -17 -25 0 -35 18 -19 34 12 12 38 2
41 -17z"/>
</g>
</svg>
