<?xml version="1.0" standalone="no"?>
<!DOCTYPE svg PUBLIC "-//W3C//DTD SVG 20010904//EN"
 "http://www.w3.org/TR/2001/REC-SVG-20010904/DTD/svg10.dtd">
<svg version="1.0" xmlns="http://www.w3.org/2000/svg"
 width="139.000000pt" height="124.000000pt" viewBox="0 0 139.000000 124.000000"
 preserveAspectRatio="xMidYMid meet">

<g transform="translate(0.000000,124.000000) scale(0.100000,-0.100000)"
fill="#000000" stroke="none">
<path d="M670 1233 c-8 -3 -54 -42 -102 -85 -67 -61 -88 -75 -88 -60 0 33 -24
43 -97 40 l-68 -3 -3 -106 -3 -107 -89 -82 c-73 -66 -90 -87 -90 -110 0 -44
30 -67 80 -60 8 1 31 17 51 36 l36 35 7 -47 c3 -26 6 -67 6 -92 l0 -45 -31 7
c-17 3 -42 6 -55 6 -17 0 -24 6 -24 19 0 11 -12 29 -28 41 -22 18 -37 21 -80
18 -85 -7 -87 -11 -87 -206 0 -142 2 -167 15 -167 13 0 15 26 18 165 2 116 6
166 15 172 19 12 92 9 105 -4 9 -9 12 -80 12 -260 l0 -248 -23 -6 c-13 -3 -41
-4 -63 -2 -36 3 -39 6 -44 38 -7 48 -36 49 -33 0 2 -49 32 -70 97 -70 54 0 96
24 96 55 0 8 4 15 10 15 5 0 78 -25 162 -56 l152 -55 225 31 c125 17 243 36
265 42 26 8 89 56 196 149 86 76 160 145 164 154 12 31 6 56 -19 80 -38 39
-71 33 -174 -35 -50 -33 -96 -60 -101 -60 -6 0 -10 70 -10 181 l0 180 28 -20
c16 -11 35 -27 42 -36 7 -8 28 -15 46 -15 40 0 70 36 60 73 -8 32 -142 151
-152 135 -5 -7 17 -34 60 -73 73 -66 84 -97 36 -103 -20 -2 -70 38 -263 214
-238 216 -238 216 -260 198 -12 -11 -100 -91 -197 -179 -291 -266 -268 -247
-290 -235 -11 6 -20 19 -20 29 0 12 83 95 214 215 315 287 303 278 329 265 19
-10 105 -87 275 -243 22 -20 35 -27 42 -20 14 14 -305 307 -330 303 -3 0 -12
-3 -20 -6z m-230 -165 c0 -24 -10 -43 -42 -75 -23 -24 -46 -43 -50 -43 -4 0
-8 34 -8 75 l0 75 50 0 c50 0 50 0 50 -32z m429 -148 l171 -155 0 -212 0 -212
-30 -21 c-33 -24 -79 -24 -90 0 -29 63 -40 77 -73 95 l-36 20 -3 135 -3 135
-109 3 c-71 2 -113 -1 -122 -9 -10 -9 -14 -40 -14 -125 l0 -114 -27 6 c-16 4
-59 22 -98 41 -38 18 -75 33 -82 33 -10 0 -13 28 -13 114 l0 113 171 157 c94
87 174 156 179 154 4 -2 85 -73 179 -158z m-89 -366 c0 -115 -1 -125 -17 -120
-10 2 -53 8 -95 12 l-78 6 0 114 0 114 95 0 95 0 0 -126z m-480 -34 c36 -6 97
-26 135 -44 83 -39 134 -51 275 -66 58 -6 116 -17 130 -23 24 -12 50 -61 38
-72 -3 -4 -99 2 -212 11 -193 17 -233 16 -210 -5 12 -11 522 -54 537 -44 7 3
73 46 148 95 133 86 172 101 197 76 31 -31 13 -55 -142 -191 -88 -78 -168
-139 -187 -145 -19 -6 -135 -25 -259 -42 l-225 -31 -160 59 -160 59 -3 186
c-3 213 -13 194 98 177z"/>
</g>
</svg>
